# xmcd
#
# Track frame offsets: 
#        150
#        23954
#        48919
#        63493
#        80155
#        94686
#        111736
#        127034
#        131730
#        156286
#
# Disc length: 2337 seconds
#
# Revision: 0
# Processed by: cddbd v1.5.2PL0 Copyright (c) Steve Scherf et al.
# Submitted via: ExactAudioCopy v1.1
#
DISCID=91091f0a
DTITLE=Little Milton - Friend Of Mine
DYEAR=1976
DGENRE=R&B
TTITLE0=Friend Of Mine
TTITLE1=You're Gonna Make Me Cry
TTITLE2=Baby It Ain't No Way
TTITLE3=Mis-Using My Love
TTITLE4=Don't Turn Away
TTITLE5=It's All Bad News
TTITLE6=Bring It On Back
TTITLE7=Sundown (Monologue)
TTITLE8=Sundown
TTITLE9=I'm In Love With My Best Friend's Wife
EXTD=
EXTT0=
EXTT1=
EXTT2=
EXTT3=
EXTT4=
EXTT5=
EXTT6=
EXTT7=
EXTT8=
EXTT9=
PLAYORDER=
